# xmcd
#
# Track frame offsets: 
#        150
#        31633
#        60122
#        89010
#        111608
#        138230
#        176566
#        203832
#        231747
#        258541
#
# Disc length: 3750 seconds
#
# Revision: 0
# Processed by: cddbd v1.5.2PL0 Copyright (c) Steve Scherf et al.
# Submitted via: ExactAudioCopy v1.0b3
#
DISCID=8c0ea40a
DTITLE=Various Artist - Tinh ca Dynh Tram Ca 2
DYEAR=2009
DGENRE=
TTITLE0=Huong Lan - Ve lai doi sim
TTITLE1=Phuong Hong Que - Noi buon chim sao
TTITLE2=Giao Linh, Linh Trang - Me la que huong
TTITLE3=Hoai Nam - Dat khach que nguoi
TTITLE4=Huong Lan - Xa roi hanh phuc gian nan
TTITLE5=Kieu Oanh, Thanh Loc - Chai luoi
TTITLE6=Thanh Tuyen - Song que
TTITLE7=Huong Lan, Hoai Nam - Trang hon tui
TTITLE8=Gia Huy - Tieng hat ben troi
TTITLE9=Khanh Ly - Ru con tinh cu
EXTD=
EXTT0=
EXTT1=
EXTT2=
EXTT3=
EXTT4=
EXTT5=
EXTT6=
EXTT7=
EXTT8=
EXTT9=
PLAYORDER=
